<?xml version="1.0" encoding="utf-8"?>
<!-- Generator: Adobe Illustrator 16.0.3, SVG Export Plug-In . SVG Version: 6.00 Build 0)  -->
<!DOCTYPE svg PUBLIC "-//W3C//DTD SVG 1.1//EN" "http://www.w3.org/Graphics/SVG/1.1/DTD/svg11.dtd">
<svg version="1.1" id="Selected_Items" xmlns="http://www.w3.org/2000/svg" xmlns:xlink="http://www.w3.org/1999/xlink" x="0px"
	 y="0px" width="69px" height="69px" viewBox="0 0 69 69" enable-background="new 0 0 69 69" xml:space="preserve">
<g>
	<path fill-rule="evenodd" clip-rule="evenodd" fill="#FEFEFE" d="M68.115,50.94l-4.218,4.7l1.186,7.071l-7.293-3.25
		c0.909-0.967,1.714-1.918,2.417-2.854l2.46,0.835l1.889-7.731L68.115,50.94z M0.763,50.94l3.646-1.273l1.846,7.775l2.416-0.791
		c1.055,1.288,1.86,2.224,2.417,2.811l-7.292,3.25l1.186-7.071L0.763,50.94z"/>
	<path fill-rule="evenodd" clip-rule="evenodd" fill="#FEFEFE" d="M21.457,14.619c-3.925,2.283-7.045,5.387-9.358,9.311
		c-2.402,4.041-3.603,8.418-3.603,13.133c0,1.844,0.205,3.703,0.615,5.577l-0.878,0.265L7.441,41.85l0.396-1.317l-1.274,0.438
		l-1.098-0.747v1.317l-1.055,0.835l1.274,0.395l0.264,0.791l-2.241,0.792H3.663c-0.556-2.254-0.834-4.686-0.834-7.291
		c0-6.149,1.64-11.8,4.92-16.954c3.192-5.036,7.469-8.857,12.829-11.463l0.176,2.196C20.958,12.188,21.192,13.447,21.457,14.619z
		 M44.742,12.29l0.264-1.317l1.186-0.571l-1.142-0.659l-0.176-1.317l-1.01,0.878l-1.318-0.22l0.571,1.23L42.501,11.5l1.318-0.175
		L44.742,12.29z M60.865,21.821l-1.361,0.044l-0.835-1.011l-0.351,1.274l-1.274,0.527l1.142,0.703l0.088,1.361l1.011-0.834
		l1.318,0.308l-0.483-1.229L60.865,21.821z M54.627,16.023l-0.879-1.01l0.308-1.318l-1.23,0.527l-1.186-0.659l0.132,1.317
		L50.76,15.76l1.274,0.308l0.571,1.229l0.704-1.142L54.627,16.023z M6.914,42.948l1.274-0.044l-1.582,0.482L6.914,42.948z
		 M6.914,31.221l-0.791-1.099l-0.439,1.23l-1.274,0.439l1.055,0.79v1.362l1.098-0.747l1.274,0.395l-0.396-1.274l0.791-1.097H6.914z
		 M8.012,21.821l0.747,1.143l-0.483,1.229l1.319-0.308l1.01,0.834l0.088-1.361l1.142-0.703l-1.274-0.527l-0.352-1.274l-0.834,1.011
		L8.012,21.821z M17.106,14.881l0.132-1.317l-1.187,0.659l-1.229-0.527l0.307,1.318l-0.879,1.01l1.319,0.132l0.702,1.142
		l0.572-1.229l1.273-0.308L17.106,14.881z M35.823,11.192c0.058-2.167-0.176-4.085-0.703-5.754
		c8.582,0.205,15.875,3.367,21.879,9.486c6.034,6.149,9.051,13.529,9.051,22.138c0,2.605-0.278,5.037-0.835,7.291h-0.043
		l-2.241-0.792l0.264-0.791l1.273-0.395l-1.054-0.835v-1.317l-1.099,0.747l-1.275-0.438l0.396,1.317l-0.791,1.055l-0.879-0.265
		c0.41-1.874,0.615-3.733,0.615-5.577c0-6.911-2.387-12.87-7.162-17.876C48.477,14.208,42.677,11.544,35.823,11.192z M43.819,62.8
		l-1.318-0.131l0.615,1.186l-0.571,1.229l1.318-0.263l1.01,0.92l0.176-1.36l1.142-0.658l-1.186-0.572l-0.264-1.317L43.819,62.8z
		 M54.056,60.428l-0.308-1.316l0.879-1.012l-1.318-0.131l-0.704-1.143l-0.571,1.23l-1.274,0.307l1.011,0.879l-0.132,1.36l1.186-0.7
		L54.056,60.428z M62.271,43.387l-1.581-0.482l1.274,0.044L62.271,43.387z M64.468,31.792l-1.273-0.439l-0.439-1.23l-0.791,1.099
		h-1.318l0.791,1.097l-0.396,1.274l1.275-0.395l1.099,0.747v-1.362L64.468,31.792z M53.484,54.674
		c1.757,0.381,3.779,0.923,6.063,1.626c-2.958,3.835-6.591,6.851-10.896,9.048c-4.452,2.227-9.198,3.338-14.235,3.338
		c-5.009,0-9.739-1.111-14.191-3.338C15.92,63.15,12.288,60.135,9.33,56.3c2.285-0.703,4.306-1.245,6.063-1.626
		c2.431,2.606,5.258,4.642,8.479,6.104c3.339,1.495,6.854,2.24,10.544,2.24c3.719,0,7.264-0.745,10.632-2.24
		C48.271,59.315,51.083,57.28,53.484,54.674z M15.569,57.969L14.25,58.1l0.879,1.012l-0.307,1.316l1.229-0.525l1.187,0.7
		l-0.132-1.36l1.01-0.879l-1.273-0.307l-0.572-1.23L15.569,57.969z M34.417,67.543l0.659-1.186l1.318-0.22l-0.967-0.922l0.22-1.361
		l-1.23,0.614l-1.186-0.614l0.22,1.361l-0.967,0.922l1.318,0.22L34.417,67.543z M23.873,63.15l-1.186,0.572l1.142,0.658l0.176,1.36
		l1.01-0.92l1.318,0.263l-0.571-1.229l0.615-1.186L25.058,62.8l-0.922-0.967L23.873,63.15z"/>
	<path fill-rule="evenodd" clip-rule="evenodd" fill="#FEFEFE" d="M18.381,17.956l4.042,4.524l-0.264,0.264L18.381,17.956z
		 M20.27,25.466l-4.964-4.436l5.184,4.085L20.27,25.466z M10.956,28.541l6.942,2.284l-0.088,0.439L10.956,28.541z M9.857,32.758
		l7.425,1.054l-0.044,0.439L9.857,32.758z M17.106,36.843v0.439l-7.645-0.22L17.106,36.843z M17.326,39.873l0.088,0.438
		l-7.557,1.098L17.326,39.873z M18.82,28.278l-6.019-3.69l6.195,3.338L18.82,28.278z M42.413,22.744l4.526-7.292l-3.999,7.379
		L42.413,22.744z M39.602,22.172l3.382-8.564l-2.9,8.696l-0.395-0.132H39.602z M37.053,20.811l1.713-8.301l-1.274,8.653
		L37.053,20.811z M50.497,17.956l-4.35,5.447l-0.439-0.088L50.497,17.956z M49.354,24.544l-0.132-0.088l4.35-3.426l-4.042,3.602
		L49.354,24.544z M52.386,26.564l3.691-1.977l-3.515,2.152L52.386,26.564z M57.922,28.541l-2.812,1.098l-0.088-0.131L57.922,28.541z
		 M37.448,52.611l1.318,9.046l-1.845-9.046H37.448z M40.392,52.786l2.592,7.729l-3.12-7.773L40.392,52.786z M43.906,53.05
		l3.032,5.622l-3.515-5.667L43.906,53.05z M29.013,52.742l-3.119,7.773l2.592-7.729L29.013,52.742z M31.957,52.611l-1.846,9.046
		l1.318-9.046H31.957z M34.724,52.564l-0.307,9.488l-0.264-9.488H34.724z M20.665,53.619l-2.284,2.591l1.977-2.501L20.665,53.619z
		 M25.454,53.005l-3.514,5.667l3.031-5.622L25.454,53.005z"/>
	<g>
		<path fill-rule="evenodd" clip-rule="evenodd" fill="#FEFEFE" d="M33.011,37.633c-2.226-2.78-3.559-4.407-3.999-4.875
			c-0.439-0.527-1.289-1.362-2.548-2.504c0.586-3.016,1.289-5.241,2.109-6.676c0.235-0.41,1.626-2.269,4.174-5.578
			c1.318,2.783,3.105,4.642,5.36,5.578c0.498,0.206,2.65,0.659,6.458,1.362c2.782,0.527,5.038,1.567,6.766,3.119
			c2.431,2.196,4.51,5.797,6.239,10.804c-7.206-4.04-12.317-5.446-15.333-4.216c-1.552,0.907-2.783,1.581-3.691,2.02
			C36.936,37.457,35.09,37.779,33.011,37.633z"/>
		<path fill-rule="evenodd" clip-rule="evenodd" fill="#FEFEFE" d="M30.111,1.31c1.318,0.878,2.299,2.226,2.944,4.041
			c0.762,2.021,1.026,4.451,0.791,7.291c-0.323,1.874-0.982,3.411-1.978,4.612c-0.585,0.761-1.684,1.727-3.295,2.898
			c-3.28,2.43-5.652,5.534-7.117,9.311c-1.407,3.631-1.772,7.291-1.099,10.981l-1.055,0.088c-0.761-3.749-0.424-7.438,1.011-11.069
			c1.523-3.836,4.057-7.071,7.601-9.707c1.992-1.464,3.28-3.412,3.866-5.842c0.439-1.991,0.395-4.173-0.132-6.544
			c-0.468-2.05-1.201-3.573-2.196-4.568c-0.937-0.937-1.904-1.274-2.899-1.01c-2.256,0.585-3.119,3.455-2.592,8.608
			c0.498,4.803,1.435,7.862,2.812,9.18c-1.377,0.117-2.563-1.757-3.558-5.622c-0.967-3.835-1.099-7.13-0.396-9.882
			c0.322-1.406,0.981-2.46,1.978-3.163C26.318-0.169,28.09-0.037,30.111,1.31z M24.136,40.312
			c-1.904-8.315-0.63-14.333,3.822-18.051c-3.017,6.471-3.866,12.488-2.548,18.051H24.136z"/>
	</g>
	<path fill-rule="evenodd" clip-rule="evenodd" fill="#FEFEFE" d="M35.208,45.978c0-0.41,0.146-0.791,0.439-1.142
		c0.292-0.321,0.645-0.469,1.055-0.438c0.41,0,0.761,0.145,1.054,0.438c0.264,0.322,0.396,0.718,0.396,1.186
		c-0.03,0.526-0.176,0.937-0.439,1.23c-0.352,0.292-0.704,0.44-1.054,0.44c-0.469-0.061-0.82-0.222-1.055-0.485
		C35.339,46.856,35.208,46.446,35.208,45.978z M34.637,43.869c-0.498,0.556-0.748,1.26-0.748,2.108
		c-0.028,0.791,0.206,1.493,0.703,2.109c0.469,0.525,1.069,0.818,1.802,0.877c0.322,0,0.6-0.059,0.834-0.176
		c0.176-0.058,0.44-0.233,0.791-0.526v0.569l1.318,0.047l0.132-5.579l-1.362-0.044v0.614c-0.206-0.233-0.469-0.425-0.791-0.57
		c-0.292-0.147-0.586-0.219-0.878-0.219C35.735,43.08,35.134,43.343,34.637,43.869z M29.979,45.539
		c0.088-0.293,0.22-0.556,0.396-0.791c0.146-0.146,0.38-0.249,0.703-0.308c0.176,0,0.351,0.059,0.527,0.176
		c0.118,0.117,0.22,0.277,0.308,0.483C31.971,45.392,32,45.847,32,46.462l0.044,2.416h1.318l-0.044-3.691
		c0-0.645-0.161-1.126-0.483-1.449c-0.381-0.381-0.834-0.569-1.362-0.569c-0.205,0-0.454,0.058-0.747,0.175
		c-0.176,0.058-0.455,0.25-0.835,0.57v-0.57l-1.362,0.044l0.132,5.577l1.318-0.043V45.539z M23.96,45.452
		c0.264-0.323,0.601-0.499,1.011-0.528c0.41-0.059,0.762,0.06,1.054,0.353c0.322,0.263,0.498,0.628,0.528,1.097
		c0.029,0.44-0.074,0.85-0.308,1.229c-0.263,0.293-0.6,0.468-1.011,0.528c-0.438,0.057-0.805-0.061-1.098-0.351
		c-0.264-0.266-0.425-0.646-0.483-1.143C23.595,46.17,23.697,45.772,23.96,45.452z M24.839,43.606
		c-0.703,0.057-1.303,0.366-1.801,0.922c-0.556,0.644-0.791,1.392-0.703,2.24c0.03,0.79,0.352,1.464,0.966,2.02
		c0.616,0.528,1.289,0.747,2.021,0.659c0.498-0.029,0.967-0.205,1.406-0.526c0.41-0.322,0.717-0.702,0.922-1.141
		c0.234-0.499,0.322-1.012,0.264-1.54c-0.059-0.495-0.235-0.964-0.527-1.404c-0.235-0.411-0.601-0.732-1.099-0.967
		C25.82,43.663,25.337,43.575,24.839,43.606z M21.983,46.9c-0.029-0.498-0.22-0.967-0.571-1.405
		c-0.293-0.38-0.674-0.688-1.142-0.922c-0.44-0.176-0.938-0.235-1.494-0.176c-0.674,0.145-1.245,0.482-1.713,1.011
		c-0.527,0.701-0.732,1.477-0.616,2.327c0.088,0.79,0.455,1.434,1.099,1.932c0.586,0.498,1.259,0.674,2.021,0.528
		c0.469-0.03,0.923-0.222,1.363-0.572c0.41-0.322,0.703-0.731,0.878-1.23C22.013,47.867,22.071,47.369,21.983,46.9z M18.996,45.714
		c0.38-0.087,0.747,0.015,1.098,0.308c0.293,0.205,0.484,0.556,0.571,1.055c0.059,0.498-0.029,0.907-0.263,1.23
		c-0.264,0.38-0.586,0.585-0.967,0.614c-0.439,0.059-0.806-0.043-1.099-0.309c-0.351-0.292-0.542-0.657-0.571-1.098
		c-0.059-0.526,0.029-0.921,0.264-1.187C18.264,45.948,18.585,45.745,18.996,45.714z M11.922,47.559
		c0.234-0.352,0.542-0.57,0.923-0.658c0.38-0.118,0.747-0.06,1.098,0.176c0.352,0.264,0.571,0.616,0.66,1.055
		c0.087,0.468,0.043,0.893-0.132,1.273c-0.234,0.38-0.542,0.614-0.922,0.703c-0.381,0.088-0.761,0.015-1.142-0.222
		c-0.293-0.203-0.513-0.556-0.66-1.055C11.659,48.336,11.717,47.911,11.922,47.559z M11.351,46.681l-0.132-0.571l-1.273,0.307
		l1.625,7.425l1.274-0.31l-0.571-2.591c0.352,0.235,0.659,0.367,0.922,0.396c0.293,0.058,0.586,0.042,0.879-0.044
		c0.674-0.177,1.187-0.586,1.538-1.231c0.381-0.644,0.483-1.389,0.308-2.238c-0.175-0.821-0.571-1.45-1.187-1.89
		c-0.585-0.41-1.215-0.525-1.889-0.351c-0.352,0.059-0.63,0.189-0.835,0.395C11.776,46.125,11.556,46.358,11.351,46.681z
		 M8.539,46.9c-0.264-0.087-0.6-0.073-1.011,0.044c-0.468,0.118-0.834,0.38-1.098,0.791c-0.206,0.381-0.264,0.79-0.176,1.229
		c0.176,0.675,0.732,1.098,1.669,1.275l0.528,0.132c0.439,0.088,0.673,0.232,0.703,0.438c0.028,0.088,0,0.205-0.088,0.351
		c-0.117,0.117-0.249,0.191-0.396,0.219c-0.146,0.061-0.337,0.061-0.571,0c-0.146-0.027-0.366-0.132-0.659-0.307L6.87,52.214
		c0.615,0.499,1.303,0.63,2.065,0.397c0.527-0.118,0.937-0.397,1.23-0.836c0.263-0.41,0.322-0.864,0.175-1.361
		c-0.088-0.38-0.264-0.659-0.527-0.835c-0.205-0.205-0.615-0.38-1.23-0.525l-0.527-0.09l-0.439-0.176
		c-0.088-0.027-0.132-0.088-0.132-0.176c-0.029-0.058-0.015-0.146,0.043-0.263l0.352-0.176c0.234-0.087,0.572-0.014,1.011,0.219
		l0.571-1.053C9.227,47.134,8.92,46.988,8.539,46.9z M34.46,40.092c11.336,0,21.514,1.61,30.535,4.832l-2.768,11.64
		c-8.465-3.075-17.721-4.612-27.767-4.612c-10.076,0-19.346,1.537-27.81,4.612l-2.768-11.64
		C12.904,41.702,23.096,40.092,34.46,40.092z M53.748,43.035l-1.318-0.221l-1.318,7.6l1.318,0.264L53.748,43.035z M60.998,47.076
		l-1.099-0.308l-1.318,5.445l1.318,0.31l0.527-2.152l0.044-0.264c0.176-0.791,0.366-1.29,0.57-1.495
		c0.177-0.233,0.381-0.321,0.616-0.263l0.308,0.219l0.703-1.054c-0.176-0.146-0.337-0.233-0.483-0.263
		c-0.205-0.059-0.439-0.045-0.703,0.043c-0.234,0.088-0.454,0.249-0.659,0.485L60.998,47.076z M55.242,47.252
		c0.322-0.264,0.688-0.352,1.099-0.264c0.41,0.146,0.717,0.381,0.923,0.704c0.205,0.32,0.264,0.731,0.175,1.229
		c-0.088,0.438-0.292,0.804-0.615,1.098c-0.381,0.234-0.762,0.308-1.143,0.221c-0.41-0.09-0.717-0.322-0.922-0.704
		c-0.205-0.351-0.263-0.761-0.175-1.229C54.671,47.837,54.89,47.486,55.242,47.252z M57.175,46.065
		c-0.264-0.176-0.542-0.307-0.835-0.395c-0.703-0.117-1.348,0.029-1.933,0.438c-0.586,0.468-0.967,1.098-1.143,1.89
		c-0.146,0.879-0.029,1.624,0.352,2.24c0.41,0.672,0.937,1.068,1.582,1.186c0.263,0.088,0.557,0.103,0.879,0.044l0.879-0.396
		l-0.132,0.572l1.318,0.307l1.099-5.489l-1.318-0.265l-0.088,0.616C57.541,46.432,57.321,46.184,57.175,46.065z M47.905,44.266
		l-1.318-0.219l-0.307,2.326c-0.146,0.908-0.176,1.522-0.088,1.846c0.088,0.525,0.278,0.937,0.571,1.229
		c0.322,0.323,0.776,0.526,1.362,0.614c0.556,0.088,1.01,0.046,1.362-0.131c0.381-0.176,0.688-0.47,0.923-0.877
		c0.176-0.293,0.336-0.953,0.483-1.978l0.351-2.328l-1.362-0.22l-0.352,2.724c-0.087,0.615-0.161,0.95-0.22,1.01
		c-0.087,0.205-0.219,0.351-0.395,0.438c-0.205,0.088-0.41,0.117-0.615,0.088c-0.205-0.027-0.381-0.115-0.528-0.263
		c-0.117-0.117-0.205-0.293-0.263-0.526c-0.03-0.117-0.015-0.484,0.043-1.099L47.905,44.266z M43.248,44.88
		c0.176,0,0.411,0.06,0.703,0.175c0.264,0.176,0.455,0.354,0.572,0.528l1.186-0.528c-0.234-0.409-0.557-0.745-0.966-1.008
		c-0.41-0.266-0.879-0.425-1.406-0.485c-0.556-0.029-1.084,0.061-1.582,0.264c-0.527,0.235-0.908,0.559-1.142,0.967
		c-0.293,0.438-0.469,0.922-0.528,1.448c-0.088,0.762,0.117,1.466,0.615,2.109c0.498,0.614,1.201,0.967,2.109,1.055
		c1.055,0.088,1.904-0.22,2.548-0.924l-1.011-0.835c-0.351,0.411-0.834,0.573-1.45,0.485c-0.468-0.03-0.834-0.206-1.098-0.528
		c-0.293-0.321-0.41-0.732-0.352-1.229c0.058-0.497,0.234-0.878,0.527-1.143C42.295,44.967,42.721,44.852,43.248,44.88z"/>
</g>
</svg>
